<svg xmlns="http://www.w3.org/2000/svg"  viewBox="0 0 50 50" width="50px" height="50px"><path d="M 18 4 L 18 6 L 7 6 C 5.347656 6 4 7.347656 4 9 L 4 43 C 4 44.652344 5.347656 46 7 46 L 43 46 C 44.652344 46 46 44.652344 46 43 L 46 9 C 46 7.347656 44.652344 6 43 6 L 39 6 L 39 4 L 26 4 L 26 6 L 24 6 L 24 4 Z M 20 6 L 22 6 L 22 11 L 20 11 Z M 28 6 L 37 6 L 37 11 L 28 11 Z M 8 9 C 8.550781 9 9 9.449219 9 10 C 9 10.550781 8.550781 11 8 11 C 7.449219 11 7 10.550781 7 10 C 7 9.449219 7.449219 9 8 9 Z M 42 9 C 42.550781 9 43 9.449219 43 10 C 43 10.550781 42.550781 11 42 11 C 41.449219 11 41 10.550781 41 10 C 41 9.449219 41.449219 9 42 9 Z M 12 17 L 15 17 L 15 28 L 12 28 Z M 17 17 L 20 17 L 20 28 L 17 28 Z M 28 17 L 39 17 L 39 28 L 28 28 Z M 31 20 L 31 25 L 36 25 L 36 20 Z M 11 33 L 31 33 L 31 35 L 11 35 Z M 37 34 C 38.101563 34 39 34.898438 39 36 C 39 37.101563 38.101563 38 37 38 C 35.898438 38 35 37.101563 35 36 C 35 34.898438 35.898438 34 37 34 Z M 11 37 L 31 37 L 31 39 L 11 39 Z M 8 41 C 8.550781 41 9 41.449219 9 42 C 9 42.550781 8.550781 43 8 43 C 7.449219 43 7 42.550781 7 42 C 7 41.449219 7.449219 41 8 41 Z M 42 41 C 42.550781 41 43 41.449219 43 42 C 43 42.550781 42.550781 43 42 43 C 41.449219 43 41 42.550781 41 42 C 41 41.449219 41.449219 41 42 41 Z"/></svg>