<svg xmlns="http://www.w3.org/2000/svg"  viewBox="0 0 512 512" width="64px" height="64px"><path d="M420.002,490c-2.542,0-5.043-0.969-6.945-2.803L250,329.895L86.943,487.197c-2.888,2.786-7.16,3.574-10.853,2.007 C72.398,487.636,70,484.012,70,480V40c0-5.523,4.477-10,10-10h340c5.522,0,10,4.477,10,10v440c0,4.012-2.397,7.636-6.091,9.204 C422.648,489.739,421.32,490,420.002,490z M250,306c2.503,0,5.006,0.935,6.943,2.803L410,456.458V50H90v406.458l153.057-147.655 C244.994,306.935,247.497,306,250,306z"/></svg>