<?xml version="1.0"?><svg xmlns="http://www.w3.org/2000/svg"  viewBox="0 0 24 24" width="24px" height="24px">    <path d="M 18 2 L 2 18 L 2 22 L 6 22 L 8.0117188 19.988281 C 7.5867188 19.422281 7.2692344 18.772641 7.1152344 18.056641 L 5.171875 20 L 4 20 L 4 18.828125 L 7.2207031 15.607422 C 7.6967031 13.973422 8.9734219 12.696703 10.607422 12.220703 L 18 4.828125 L 19.171875 6 L 13.171875 12 L 16 12 L 22 6 L 18 2 z M 8.65625 4 C 7.59525 4 6.579125 4.420875 5.828125 5.171875 L 2.7070312 8.2929688 C 1.9220312 9.0779688 1.7716094 10.357797 2.4746094 11.216797 C 2.9016094 11.739797 3.5120937 12 4.1210938 12 C 4.6640938 12 5.2070938 11.792906 5.6210938 11.378906 L 6 11 L 6 10 L 4.1210938 10 C 4.0630938 10 4.0343438 9.9640312 4.0273438 9.9570312 C 4.0163437 9.9250312 4.0280937 9.8000312 4.1210938 9.7070312 L 7.2421875 6.5859375 C 7.4821875 6.3459375 7.7747969 6.1730781 8.0917969 6.0800781 L 11.654297 6 L 13.654297 4 L 8.65625 4 z M 21 10 L 17 14 L 12 14 C 10.343 14 9 15.343 9 17 C 9 18.657 10.343 20 12 20 L 21 20 L 21 18 L 19 18 L 15.841797 18 L 12 18 C 11.449 18 11 17.551 11 17 C 11 16.449 11.449 16 12 16 L 17.828125 16 L 21 12.841797 L 21 10 z"/></svg>